Coordinates
version=1
nRows=5
nColumns=63
inDegrees=yes

Units are S.I. units (second, meters, Newtons, ...)
If the header above contains a line with 'inDegrees', this indicates whether rotational values are in degrees (yes) or radians (no).

endheader
time	pelvis_tilt	pelvis_list	pelvis_rotation	pelvis_tx	pelvis_ty	pelvis_tz	hip_flexion_r	hip_adduction_r	hip_rotation_r	knee_angle_r	knee_angle_r_beta	ankle_angle_r	subtalar_angle_r	mtp_angle_r	hip_flexion_l	hip_adduction_l	hip_rotation_l	knee_angle_l	knee_angle_l_beta	ankle_angle_l	subtalar_angle_l	mtp_angle_l	L5_S1_Flex_Ext	L5_S1_Lat_Bending	L5_S1_axial_rotation	L4_L5_Flex_Ext	L4_L5_Lat_Bending	L4_L5_axial_rotation	L3_L4_Flex_Ext	L3_L4_Lat_Bending	L3_L4_axial_rotation	L2_L3_Flex_Ext	L2_L3_Lat_Bending	L2_L3_axial_rotation	L1_L2_Flex_Ext	L1_L2_Lat_Bending	L1_L2_axial_rotation	L1_T12_Flex_Ext	L1_T12_Lat_Bending	L1_T12_axial_rotation	Abs_r3	Abs_r2	Abs_r1	Abs_t1	Abs_t2	neck_flexion	neck_bending	neck_rotation	arm_flex_r	arm_add_r	arm_rot_r	elbow_flex_r	pro_sup_r	wrist_flex_r	wrist_dev_r	arm_flex_l	arm_add_l	arm_rot_l	elbow_flex_l	pro_sup_l	wrist_flex_l	wrist_dev_l
      0.00000000	      3.13629476	     -4.27729408	     93.68189019	      0.16818729	      1.02421498	      0.07362650	     -1.57990604	      4.24155433	      6.95022661	      1.06025482	      0.01850494	     22.91046935	    -15.14297619	      0.00000000	     -1.17530139	     -0.88363470	     16.26772551	      1.39074698	      0.02427311	     24.62817046	    -17.49590413	      0.00000000	      0.10837995	      0.63215565	     -0.86330230	      0.20127241	      0.84076701	     -0.91725869	      0.17805742	      1.53702324	     -0.91725869	      0.12386745	      1.53702324	     -0.75538951	      0.10064162	      1.28909180	     -0.70143312	      0.06192830	      0.97920910	     -0.64747672	      0.77414715	      7.15107111	     -4.80142839	      0.00000000	      0.00000000	     21.29446206	      0.59878823	     15.19867720	     26.11758736	     -3.56802652	    103.39709669	     34.47213664	     82.46840103	      7.14354775	     -1.01605316	     19.49568848	     -4.81363118	     77.60582426	     37.09472752	     87.34608111	     -2.94199990	      1.11010139
      0.01754386	      3.18141732	     -4.13627939	     94.21087082	      0.16810610	      1.02418742	      0.07146778	     -1.97241910	      4.34964670	      6.68226073	      0.93263416	      0.01627754	     23.01733917	    -15.28416644	      0.00000000	     -1.51683959	     -0.98150556	     15.79934819	      1.43531107	      0.02505090	     24.55092537	    -17.31774518	      0.00000000	      0.12170155	      0.60680323	     -0.80947347	      0.22601196	      0.80704829	     -0.86006556	      0.19994348	      1.47538137	     -0.86006556	      0.13909271	      1.47538137	     -0.70828929	      0.11301206	      1.23739314	     -0.65769720	      0.06954027	      0.93993820	     -0.60710510	      0.86930203	      6.86427947	     -4.50204861	      0.00000000	      0.00000000	     21.41506579	      0.02926199	     12.29378227	     25.40724265	     -3.77696793	    102.12294618	     34.49741053	     80.76496893	      7.32651315	     -0.31690515	     19.02451083	     -4.70679871	     76.83475858	     37.07662017	     86.24362171	     -1.46919367	      1.09970355
      0.03508772	      3.20485495	     -4.03137640	     94.62623152	      0.16800107	      1.02419155	      0.06973853	     -2.25968484	      4.42063810	      6.17317011	      0.86273705	      0.01505760	     23.25492018	    -14.91541863	      0.00000000	     -1.77927333	     -1.05019628	     15.54832632	      1.45339898	      0.02536660	     24.54944505	    -17.09336079	      0.00000000	      0.13757691	      0.58802697	     -0.79713809	      0.25549408	      0.78207587	     -0.84695922	      0.22602510	      1.42972877	     -0.84695922	      0.15723665	      1.42972877	     -0.69749583	      0.12775392	      1.19910459	     -0.64767470	      0.07861145	      0.91085377	     -0.59785357	      0.98269810	      6.65187865	     -4.43344293	      0.00000000	      0.00000000	     21.32672709	     -0.26008801	     10.45300772	     24.89640554	     -3.88887531	    101.49800381	     34.56989784	     79.97248791	      7.06183457	     -0.08181766	     18.46053244	     -4.64139674	     75.96899095	     36.97332633	     85.09182742	      0.08071684	      1.25683714
      0.05263158	      3.17875940	     -3.89736306	     95.04010508	      0.16782845	      1.02428913	      0.06857467	     -2.53453834	      4.44345510	      6.02634433	      0.80399350	      0.01403233	     23.32717780	    -15.12778161	      0.00000000	     -2.00967129	     -1.07242889	     15.75075439	      1.46377285	      0.02554766	     24.50495833	    -17.12135342	      0.00000000	      0.13900613	      0.57090337	     -0.83344327	      0.25814828	      0.75930149	     -0.88553347	      0.22837317	      1.38809446	     -0.88553347	      0.15887010	      1.38809446	     -0.72926286	      0.12908109	      1.16418616	     -0.67717265	      0.07942810	      0.88432932	     -0.62508245	      0.99290688	      6.45817313	     -4.63536142	      0.00000000	      0.00000000	     21.27756778	     -0.34210272	      9.59860015	     24.62969017	     -3.85549747	    101.43351572	     34.62645260	     79.56727604	      6.68677413	      0.02104755	     18.09542541	     -4.68248487	     75.77097739	     36.87698006	     82.51019174	      1.59375484	      1.64860051
      0.07017544	      3.17732796	     -3.79247910	     95.31181217	      0.16768156	      1.02439146	      0.06774147	     -2.73414146	      4.47423488	      5.89634550	      0.76807930	      0.01340551	     23.43029315	    -15.14775333	      0.00000000	     -2.18145815	     -1.10470142	     15.99920694	      1.46368440	      0.02554611	     24.54354103	    -17.12414136	      0.00000000	      0.14380309	      0.56320474	     -0.86768328	      0.26705672	      0.74906230	     -0.92191349	      0.23625410	      1.36937601	     -0.92191349	      0.16435255	      1.36937601	     -0.75922287	      0.13353555	      1.14848711	     -0.70499267	      0.08216909	      0.87240414	     -0.65076246	      1.02717110	      6.37108466	     -4.82579412	      0.00000000	      0.00000000	     21.10167028	     -0.26220372	      9.35451561	     24.35501700	     -3.91038931	    101.06904269	     34.79280543	     80.80957095	      6.17676303	     -0.09136325	     17.98186802	     -4.70396311	     76.68506725	     36.68524512	     78.75129516	      2.37400408	      1.86268552
